<?xml version="1.0" encoding="utf-8"?>
<!-- Generator: Adobe Illustrator 17.1.0, SVG Export Plug-In . SVG Version: 6.00 Build 0)  -->
<!DOCTYPE svg PUBLIC "-//W3C//DTD SVG 1.1//EN" "http://www.w3.org/Graphics/SVG/1.1/DTD/svg11.dtd">
<svg version="1.1" id="Capa_1" xmlns="http://www.w3.org/2000/svg" xmlns:xlink="http://www.w3.org/1999/xlink" x="0px" y="0px"
	 viewBox="0 0 284.9 284.9" enable-background="new 0 0 284.9 284.9" xml:space="preserve">
<g>
	<g>
		<path d="M136.1,151.4c1.8,1.1,3.9,1.7,6.3,1.7s4.5-0.6,6.3-1.7l128.3-78.9c1.8-1.1,2.7-2.4,2.7-3.9s-0.9-2.8-2.7-3.9l-13.8-8.5
			c-1.8-1.1-3.9-1.7-6.3-1.7c-2.4,0-4.5,0.6-6.3,1.7l-108.2,66.5L34.2,56.3c-1.8-1.1-3.9-1.7-6.3-1.7c-2.4,0-4.5,0.6-6.3,1.7
			L7.8,64.7C5.9,65.8,5,67.1,5,68.6s0.9,2.8,2.8,3.9L136.1,151.4z"/>
		<path d="M263.3,121.3c-1.8-1.1-3.9-1.7-6.3-1.7c-2.4,0-4.5,0.6-6.3,1.7l-108.2,66.5L34.2,121.3c-1.8-1.1-3.9-1.7-6.3-1.7
			c-2.4,0-4.5,0.6-6.3,1.7l-13.8,8.5c-1.8,1.1-2.8,2.4-2.8,3.9c0,1.5,0.9,2.8,2.8,3.9l128.3,78.9c1.8,1.1,3.9,1.7,6.3,1.7
			s4.5-0.6,6.3-1.7l128.3-78.9c1.8-1.1,2.7-2.4,2.7-3.9c0-1.5-0.9-2.8-2.7-3.9L263.3,121.3z"/>
	</g>
</g>
</svg>
